<svg xmlns="http://www.w3.org/2000/svg" xmlns:xlink="http://www.w3.org/1999/xlink" viewBox="0 0 53.77 58.99">
	<defs>
		<style>.cls-1{fill:none;}.cls-2{clip-path:url(#clip-path);}.cls-3{fill:url(#linear-gradient);}</style>
		<clipPath id="clip-path" transform="translate(0 0)">
			<rect class="cls-1" width="53.77" height="58.99"/>
		</clipPath>
		<linearGradient id="linear-gradient" x1="0" y1="0" x2="100%" y2="100%">
		    <stop offset="0%" stop-color="#FFC950"/>
		    <stop offset="100%" stop-color="#FF8007"/>
		</linearGradient>
	</defs>
	<title>Ресурс 1</title>
	<g id="Слой_2" data-name="Слой 2">
		<g id="Слой_1-2" data-name="Слой 1">
			<g class="cls-2">
				<path class="cls-3" d="M53.43,11.34A33.56,33.56,0,0,0,19.21,3.22C17.89,1.14,16.2,0,14.35,0c-2.12,0-4,1.5-5.41,4.21L1.07,19.79C-.29,22.47-.35,25,.87,27s3.56,3.1,6.56,3.1h5.76v4H12a1.16,1.16,0,0,0-1.14,1L7.95,52.38a1.09,1.09,0,0,0,0,.19A6.42,6.42,0,0,0,14.35,59h0a6.43,6.43,0,0,0,6.42-6.42,1.09,1.09,0,0,0,0-.19L17.87,35.08a1.16,1.16,0,0,0-1.14-1H15.51v-4h5.76c3,0,5.33-1.1,6.56-3.1a5.8,5.8,0,0,0,.64-1.48,9.55,9.55,0,0,1,8,2.71,1.16,1.16,0,0,0,1.64-1.64,11.85,11.85,0,0,0-9.48-3.42,9.5,9.5,0,0,0-1-3.42L27,18.5a16.76,16.76,0,0,1,14.62,4.67,1.16,1.16,0,0,0,1.64-1.64A19.08,19.08,0,0,0,25.9,16.35l-2.27-4.48A24,24,0,0,1,46.7,18.08a1.16,1.16,0,0,0,1.64-1.64A26.3,26.3,0,0,0,22.56,9.75L20.31,5.3A31.25,31.25,0,0,1,51.8,13a1.16,1.16,0,1,0,1.64-1.64m-35,41.32a4.11,4.11,0,0,1-4.1,4h0a4.11,4.11,0,0,1-4.1-4L13,36.42h2.8Zm7.4-26.84c-.79,1.29-2.42,2-4.59,2H15.51V25a1.16,1.16,0,0,0-2.31,0v2.81H7.43c-2.17,0-3.8-.71-4.59-2s-.69-3.06.29-5L11,5.26c.95-1.87,2.16-2.94,3.35-2.94s2.4,1.07,3.35,2.94l7.87,15.58c1,1.93,1.08,3.71.29,5" transform="translate(0 0)"/>
			</g>
		</g>
	</g>
</svg>