<svg xmlns="http://www.w3.org/2000/svg" xmlns:xlink="http://www.w3.org/1999/xlink" viewBox="0 0 49.89 49.75">
	<defs>
		<style>.cls-1{fill:none;}.cls-2{clip-path:url(#clip-path);}.cls-3{fill:url(#linear-gradient);}</style>
		<clipPath id="clip-path" transform="translate(0 0)">
			<rect class="cls-1" width="49.89" height="49.75"/>
		</clipPath>
		<linearGradient id="linear-gradient" x1="0" y1="0" x2="100%" y2="100%">
		    <stop offset="0%" stop-color="#FFC950"/>
		    <stop offset="100%" stop-color="#FF8007"/>
		</linearGradient>
	</defs>
	<g id="Слой_2" data-name="Слой 2">
		<g id="Слой_1-2" data-name="Слой 1">
			<g class="cls-2">
				<path class="cls-3" d="M11,47.5A14.49,14.49,0,0,1,7.28,47V21.18a1.12,1.12,0,0,0-2.25,0v25c-1.7-.9-2.78-2.16-2.78-3.53V11.5A13.77,13.77,0,0,0,11,14.27a13.77,13.77,0,0,0,8.79-2.77v6.37a1.13,1.13,0,0,0,2.25,0V7.13c0-4-4.85-7.13-11-7.13S0,3.13,0,7.13V42.62c0,4,4.85,7.13,11,7.13a1.13,1.13,0,1,0,0-2.25M11,2.25c4.77,0,8.79,2.24,8.79,4.88S15.81,12,11,12,2.25,9.78,2.25,7.13s4-4.88,8.79-4.88" transform="translate(0 0)"/>
				<path class="cls-3" d="M8.27,8.14a6.44,6.44,0,0,0,5.54,0,1.13,1.13,0,0,0,0-2,6.43,6.43,0,0,0-5.54,0,1.12,1.12,0,0,0,0,2" transform="translate(0 0)"/>
				<path class="cls-3" d="M22.16,43.25a1.12,1.12,0,0,0,.8-.33l12.7-12.7a1.13,1.13,0,1,0-1.59-1.59l-12.7,12.7a1.12,1.12,0,0,0,.8,1.92" transform="translate(0 0)"/>
				<path class="cls-3" d="M28.77,42.92a1.13,1.13,0,0,0,1.59,0l12.7-12.7a1.13,1.13,0,0,0-1.59-1.59l-12.7,12.7a1.13,1.13,0,0,0,0,1.59" transform="translate(0 0)"/>
				<path class="cls-3" d="M22.16,35.86a1.12,1.12,0,0,0,.8-.33l5.31-5.31a1.13,1.13,0,1,0-1.59-1.59l-5.31,5.31a1.13,1.13,0,0,0,.8,1.92" transform="translate(0 0)"/>
				<path class="cls-3" d="M41.47,36l-5.31,5.31a1.13,1.13,0,0,0,1.59,1.59l5.31-5.3A1.13,1.13,0,1,0,41.47,36" transform="translate(0 0)"/>
				<path class="cls-3" d="M48.77,21.8H15.67a1.12,1.12,0,0,0-1.12,1.13v25.7a1.13,1.13,0,0,0,1.13,1.13h33.1a1.13,1.13,0,0,0,1.13-1.12V22.92a1.12,1.12,0,0,0-1.12-1.12M47.64,47.5H16.79V24H47.64Z" transform="translate(0 0)"/>
			</g>
		</g>
	</g>
</svg>