<svg xmlns="http://www.w3.org/2000/svg" xmlns:xlink="http://www.w3.org/1999/xlink" viewBox="0 0 48.4 45.12">
	<style>.cls-1{fill:none;}.cls-2{clip-path:url(#clip-path);}.cls-3{fill-rule:evenodd;}</style>
	<linearGradient id="linear-gradient" x1="0" y1="0" x2="100%" y2="100%">
	    <stop offset="0%" stop-color="#FFC950"/>
	    <stop offset="100%" stop-color="#FF8007"/>
	</linearGradient>
	<defs>
		<clipPath id="clip-path">
			<rect fill="none" width="48.4" height="45.12"/>
		</clipPath>
	</defs>
	<g class="cls-2">
		<path fill="url(#linear-gradient)" class="cls-3" d="M3.69,12.17.47,4.48.29,4,.43,3.6,1,1.82,1.36.72,2.57.85l5.32.6.55.06.37.38,3.14,3.29.35.37v.5l.07,2.68,0,.63-.51.42-3,2.44-.31.25-.39.06L5.3,13l-1.17.2Zm14.25,31-.7-3.81-.19-1,1-.43,4.3-1.81.44-.18.48.1,4.9,1,2.43.2,1.2.1.12,1.12.4,3.72.11,1.06-1.08.35L27,45l-.32.1-.33,0-7.12-.79-1.08-.12Zm2.35-3.24.33,1.78,5.72.64,3-1-.17-1.54-1.37-.11-4.67-1Zm21.83-6.58L47,35.23l.82.32.07.82.43,4.72.06.7-.58.45-3.25,2.54-.43.34-.56,0-4.49-.18-1,0L37.78,44,36.58,41l-.26-.66.43-.58,1.93-2.57L40.27,34l.59-1.16Zm2.95,4.06-2.78-1.07-1.08,2.14-1.65,2.2.61,1.56,3,.12,2.24-1.75ZM15.32,28.59l-1,1.77.57,1.58,2.31-.08,1.15-3.25-.87-.6Zm-3.85,1L13,26.82l.29-.53.61-.16,3.46-.9.68-.18.57.39L20.93,27l.85.58-.33.93-1.79,5.07-.32.89-1,0-4.4.14-1.08,0-.35-1-1.12-3.08-.2-.55Zm16.22-1.85-1.09,3.07.79,1,2.59.34,2.82.65,2.56-1.12.7-2.8-1.4-1.79-2.9,1.09-.37.14-.4-.06ZM23.6,30.68l-.24.67.46.57,1.62,2,.36.45.59.08,3,.41,3.15.73.49.11.47-.2,3.67-1.6.64-.28L38,33l1-4,.15-.6-.4-.5-2.47-3.14-.67-.85-1,.39L31,25.55l-4.11-.62-1.22-.19-.39,1.1ZM4,21.09l-.39,2,.94.5,5.5-1,1.28-2.12-.26-3.82,0,0-1.68.69L7.52,19.52l-.23.28-.35.14ZM.6,23.51l-.19.94.89.48,2.31,1.23.47.25.52-.09,6.69-1.23L12,25l.33-.55,1.82-3,.21-.35,0-.4L14,15.94l0-.49-.37-.36L12.46,14l-.7-.69-.93.38-3,1.22-.34.14-.22.27L5.45,17.59,2.19,18.88l-.72.28-.14.72Zm2.74,18,1.82.68c1.71-.74,3.4-1.49,5.12-2.21L9.07,36.55,7.32,36,6.2,35.29l-2.14.47.09,2.16ZM4.67,44.9l.58.22.57-.25c2.29-1,4.55-2,6.85-2.94l1.19-.5-.41-1.16L11.58,35l-.24-.67-.71-.2-2-.58-1.27-.85-.54-.36-.64.14-3.94.87-1.16.26,0,1.11.12,2.94L.25,42,0,43.15l1.13.42ZM38,14.73,43.34,16l4.12,5.23.69.88-.79.82-2.66,2.78-.72.75L43,26l-3.74-1.64-2.72-1.5-.53-.3-.14-.56-1-4-.16-.61.41-.51,1.4-1.75.58-.73Zm3.56,3.66-3.34-.81-.41.51.71,2.78L40.69,22l2.57,1.13L44.42,22Zm-13.33-8.3,4.16,1.64,1.09.43-.22,1.07L32,19.57l-.11.51-.45.31-3.58,2.52-.4.28h-.51l-5.28-.13-.63,0-.42-.44L17.27,19.1l-.59-.63L17,17.7l2-4.55.25-.58.64-.2,7.39-2.32.52-.16Zm2,3.7-2.57-1-6.24,2L20,17.94l2.32,2.44,4.14.1,2.74-1.93ZM35.78,6.4l1.29,3.46,3.38,1.27,3.32-.8.94-.93.58-1.82L44.6,6.34,41.64,4,38.32,3,35.91,4.52Zm-1.24,4.92.22.58.61.23L40.24,14l5.07-1.22,2-2L48.4,7.33l-1.48-2.7L43.09,1.56,38.52.2,37.84,0l-.58.37L33.68,2.65,33.09,3l0,.67L32.86,6.5l0,.26.1.26ZM14.85,5.46l-.08.73.62.46,3.91,2.9.49.36.62-.08,2.33-.3,3.49-1.1,1.3-1.24,1-4,.23-.89-.8-.53L25.65.29,25.21,0l-.52,0L19.32.47l-.46,0L18.5.78l-3,2.34-.45.35L15,4Zm3-.61L20,3.14l4.39-.35,1.06.71-.6,2.35-.24.23-2.55.8-1.45.19L17.81,5ZM3.36,3.93,6,10.15l1.32-.22L9.46,8.16l0-1.54L7,4.08l-3.55-.4Z"/>
	</g>
</svg>