<svg xmlns="http://www.w3.org/2000/svg" xmlns:xlink="http://www.w3.org/1999/xlink" viewBox="0 0 49.83 49.75">
	<defs>
		<style>.cls-1{fill:none;}.cls-2{clip-path:url(#clip-path);}.cls-3{fill:url(#linear-gradient);}</style>
		<clipPath id="clip-path" transform="translate(0)">
			<rect class="cls-1" width="49.83" height="49.75"/>
		</clipPath>
		<linearGradient id="linear-gradient" x1="0" y1="0" x2="100%" y2="100%">
		    <stop offset="0%" stop-color="#FFC950"/>
		    <stop offset="100%" stop-color="#FF8007"/>
		</linearGradient>
	</defs>>
	<g id="Слой_2" data-name="Слой 2">
		<g id="Слой_1-2" data-name="Слой 1">
			<g class="cls-2">
				<path class="cls-3" d="M24.61,22.34,27.36,24a1.12,1.12,0,0,0,1.14,0l2.18-1.29L32.87,24A1.12,1.12,0,0,0,34,24l2.18-1.29L38.38,24a1.13,1.13,0,0,0,1.14,0l2.76-1.62a1.13,1.13,0,0,0-1.14-1.94l-2.18,1.29-2.18-1.29a1.12,1.12,0,0,0-1.14,0l-2.18,1.29-2.18-1.29a1.12,1.12,0,0,0-1.14,0l-2.18,1.29-2.18-1.29a1.12,1.12,0,0,0-1.14,1.94" transform="translate(0)"/>
				<path class="cls-3" d="M24.61,30.84l2.75,1.62a1.12,1.12,0,0,0,1.14,0l2.18-1.29,2.18,1.29a1.12,1.12,0,0,0,1.14,0l2.18-1.29,2.18,1.29a1.13,1.13,0,0,0,1.14,0l2.76-1.62a1.13,1.13,0,0,0-1.14-1.94l-2.18,1.29L36.77,28.9a1.12,1.12,0,0,0-1.14,0l-2.18,1.29L31.26,28.9a1.12,1.12,0,0,0-1.14,0l-2.18,1.29L25.75,28.9a1.12,1.12,0,0,0-1.14,1.94" transform="translate(0)"/>
				<path class="cls-3" d="M41.13,37.4l-2.19,1.29L36.77,37.4a1.13,1.13,0,0,0-1.14,0l-2.18,1.29L31.26,37.4a1.13,1.13,0,0,0-1.14,0l-2.18,1.29L25.75,37.4a1.12,1.12,0,0,0-1.14,1.94L27.36,41a1.12,1.12,0,0,0,1.14,0l2.18-1.29L32.87,41A1.13,1.13,0,0,0,34,41l2.18-1.29L38.38,41a1.13,1.13,0,0,0,1.14,0l2.76-1.62a1.13,1.13,0,0,0-1.14-1.94" transform="translate(0)"/>
				<path class="cls-3" d="M48.71,11.61H19.3v-2A9.65,9.65,0,1,0,0,9.65V40.1a9.66,9.66,0,0,0,9.65,9.65H48.71a1.12,1.12,0,0,0,1.13-1.12V12.74a1.13,1.13,0,0,0-1.12-1.12m-46.46-2a7.4,7.4,0,1,1,14.8,0V33.92a9.64,9.64,0,0,0-10.3-3V15.69a1.13,1.13,0,0,0-2.25,0V31.95a9.69,9.69,0,0,0-2.25,2Zm0,30.45a7.4,7.4,0,1,1,7.4,7.4,7.41,7.41,0,0,1-7.4-7.4m45.33,7.4H15.84a9.63,9.63,0,0,0,3.46-7.4V13.86H47.58Z" transform="translate(0)"/>
				<path class="cls-3" d="M14.27,40.1a4.62,4.62,0,1,0-4.63,4.63,4.63,4.63,0,0,0,4.63-4.62m-7,0a2.37,2.37,0,1,1,2.37,2.38A2.38,2.38,0,0,1,7.27,40.1" transform="translate(0)"/>
			</g>
		</g>
	</g>
</svg>