<svg xmlns="http://www.w3.org/2000/svg" xmlns:xlink="http://www.w3.org/1999/xlink" viewBox="0 0 48.4 41.38">
	<defs>
		<style>.cls-1{fill:none;}.cls-2{clip-path:url(#clip-path);}.cls-3{fill-rule:evenodd;}</style>
		<clipPath id="clip-path" transform="translate(0)">
			<rect class="cls-1" width="48.4" height="41.38"/>
		</clipPath>
		<linearGradient id="linear-gradient" x1="0" y1="0" x2="100%" y2="100%">
		    <stop offset="0%" stop-color="#FFC950"/>
		    <stop offset="100%" stop-color="#FF8007"/>
		</linearGradient>
	</defs>
	<g id="Слой_2" data-name="Слой 2">
		<g id="Слой_1-2" data-name="Слой 1">
			<g class="cls-2">
				<path class="cls-3" fill="url(#linear-gradient)" d="M13.48,11.68c-.72,3.66-1.73,7.67-2.75,11.2a67.72,67.72,0,0,1-3.09,8.87,9.19,9.19,0,0,1-3.21,3.66,4.42,4.42,0,0,0-1,.93A2.07,2.07,0,0,0,2.95,38a.71.71,0,0,0,.33.41,2.84,2.84,0,0,0,1.45.29H43.67a2.84,2.84,0,0,0,1.45-.29.71.71,0,0,0,.33-.41A2.08,2.08,0,0,0,45,36.36a4.4,4.4,0,0,0-1-.93,9.19,9.19,0,0,1-3.21-3.66,67.71,67.71,0,0,1-3.1-8.87c-1-3.53-2-7.55-2.75-11.2A11.08,11.08,0,0,0,31.15,5.2a11,11,0,0,0-13.91,0,11.08,11.08,0,0,0-3.77,6.48M26,6A1.69,1.69,0,0,1,27.72,7.6a1.75,1.75,0,0,1-3.5,0A1.69,1.69,0,0,1,26,6m4.11,9a1.64,1.64,0,1,1-1.75,1.63,1.69,1.69,0,0,1,1.75-1.63m4.16,10.88a1.64,1.64,0,1,1-1.75,1.63,1.69,1.69,0,0,1,1.75-1.63M35.2,33a1.63,1.63,0,1,1-1.75,1.63A1.69,1.69,0,0,1,35.2,33m-10.45-.1A1.64,1.64,0,1,1,23,34.53a1.69,1.69,0,0,1,1.75-1.63M16,30.07a1.63,1.63,0,1,1-1.75,1.63A1.69,1.69,0,0,1,16,30.07m5.71-1.89a1.64,1.64,0,1,1-1.75,1.63,1.69,1.69,0,0,1,1.75-1.63M12,33.68a1.63,1.63,0,1,1-1.75,1.63A1.69,1.69,0,0,1,12,33.68m2.66-9.75a1.64,1.64,0,1,1-1.75,1.63,1.69,1.69,0,0,1,1.75-1.63m11.83-.57A1.64,1.64,0,1,1,24.69,25a1.69,1.69,0,0,1,1.75-1.63m3.17,5.17a1.63,1.63,0,1,1-1.75,1.63,1.69,1.69,0,0,1,1.75-1.63m2.54-7.94a1.64,1.64,0,1,1-1.75,1.63,1.69,1.69,0,0,1,1.75-1.63m-12.07.76A1.63,1.63,0,1,1,18.32,23a1.69,1.69,0,0,1,1.75-1.63m4.68-4.29A1.63,1.63,0,1,1,23,18.7a1.69,1.69,0,0,1,1.75-1.63m5.74-7a1.69,1.69,0,0,1,1.75,1.63,1.75,1.75,0,0,1-3.5,0A1.69,1.69,0,0,1,30.49,10M17.68,15.88a1.64,1.64,0,1,1-1.75,1.63,1.69,1.69,0,0,1,1.75-1.63m5.93-4.41a1.63,1.63,0,1,1-1.75,1.63,1.69,1.69,0,0,1,1.75-1.63m-5.4-3A1.69,1.69,0,0,1,20,10.14a1.75,1.75,0,0,1-3.5,0,1.69,1.69,0,0,1,1.75-1.63M4.73,41.38a5.76,5.76,0,0,1-3-.74,3.39,3.39,0,0,1-1.55-2,4.53,4.53,0,0,1,1-4,7.51,7.51,0,0,1,1.47-1.38A6.91,6.91,0,0,0,5,30.67a66.06,66.06,0,0,0,2.94-8.48c1-3.51,2-7.45,2.71-11a13.71,13.71,0,0,1,4.69-8,14,14,0,0,1,17.77,0,13.72,13.72,0,0,1,4.69,8c.7,3.54,1.69,7.49,2.71,11a66.06,66.06,0,0,0,2.94,8.48,6.9,6.9,0,0,0,2.39,2.65,7.51,7.51,0,0,1,1.47,1.38,4.53,4.53,0,0,1,1,4,3.39,3.39,0,0,1-1.55,2,5.77,5.77,0,0,1-3,.74Z" transform="translate(0)"/>
			</g>
		</g>
	</g>
</svg>