<svg xmlns="http://www.w3.org/2000/svg" xmlns:xlink="http://www.w3.org/1999/xlink" viewBox="0 0 46.51 46.8">
	<defs>
		<style>.cls-1{fill:none;}.cls-2{clip-path:url(#clip-path);}.cls-3{fill:url(#linear-gradient);}</style>
		<clipPath id="clip-path">
			<rect class="cls-1" width="46.51" height="46.8"/>
		</clipPath>
		<linearGradient id="linear-gradient" x1="0" y1="0" x2="100%" y2="100%">
		    <stop offset="0%" stop-color="#FFC950"/>
		    <stop offset="100%" stop-color="#FF8007"/>
		</linearGradient>
	</defs>
	<g id="Слой_2" data-name="Слой 2">
		<g id="Слой_1-2" data-name="Слой 1">
			<g class="cls-2">
				<path class="cls-3" d="M46.22,45.12,36,34.92A4.51,4.51,0,0,0,33.8,33.7V18.84a1,1,0,0,0,0-.29L29.95,6.41V1a1,1,0,0,0-1-1H4.83a1,1,0,0,0-1,1V6.41L0,18.55a1,1,0,0,0,0,.29V38.42a1,1,0,0,0,1,1H5L1.95,42.47a1,1,0,0,0,.7,1.68H20.37l-1,1a1,1,0,0,0,.69,1.68H45.52a1,1,0,0,0,.7-1.68M2,37.44V19L5.56,7.55H19.61a1,1,0,1,0,0-2H5.82V2H28V6.56a1,1,0,0,0,0,.29L31.83,19V33.7a4.47,4.47,0,0,0-1.45.6l-3.74-3.74A3.5,3.5,0,0,0,27,29v-6a3.55,3.55,0,0,0-3.55-3.55H10.34a3.55,3.55,0,0,0-3.55,3.55v6a3.55,3.55,0,0,0,3.55,3.55h1.53L7,37.44Zm11.87-6.85h-3.5A1.58,1.58,0,0,1,8.76,29v-6a1.58,1.58,0,0,1,1.58-1.58H23.46A1.58,1.58,0,0,1,25,23.05V29l-1.58-1.58a4.54,4.54,0,0,0-6.42,0ZM5,42.18,18.43,28.77a2.57,2.57,0,0,1,3.64,0l6.84,6.84-6.57,6.57Zm17.46,2.65L31,36.32a2.57,2.57,0,0,1,3.64,0l8.52,8.52Z"/>
			</g>
		</g>
	</g>
</svg>