<svg xmlns="http://www.w3.org/2000/svg" xmlns:xlink="http://www.w3.org/1999/xlink" viewBox="0 0 48.25 48.25"><defs><style>.cls-1{fill:#FBA323;}.cls-2{clip-path:url(#clip-path);}</style><clipPath id="clip-path" transform="translate(0)"><rect class="cls-1" width="48.25" height="48.25"/></clipPath></defs><title>Ресурс 1</title><g id="Слой_2" data-name="Слой 2"><g id="Слой_1-2" data-name="Слой 1"><g class="cls-2"><path fill="#FBA323" d="M41.5,23.52a20.14,20.14,0,0,0,.2-2.66A20.85,20.85,0,1,0,20.85,41.7a19.75,19.75,0,0,0,2.66-.2,13.21,13.21,0,1,0,18-18m-19,15.66c-.62.06-1.16.09-1.65.09A18.42,18.42,0,1,1,39.27,20.85c0,.49,0,1-.09,1.65A13.18,13.18,0,0,0,22.5,39.18M35,45.82A10.78,10.78,0,1,1,45.82,35,10.8,10.8,0,0,1,35,45.82" transform="translate(0)"/><path fill="#FBA323" d="M20.85,6.55a1.22,1.22,0,0,0-1.22,1.22V20.35l-6.19,6.19a1.22,1.22,0,1,0,1.72,1.72l6.55-6.55a1.21,1.21,0,0,0,.36-.86V7.76a1.22,1.22,0,0,0-1.22-1.22" transform="translate(0)"/><path fill="#FBA323" d="M37,27.91H33.16a1.2,1.2,0,0,0-1.2,1.2V37.4H31.2a1.2,1.2,0,0,0,0,2.4H32V41a1.2,1.2,0,1,0,2.4,0V39.8h3.47a1.2,1.2,0,0,0,0-2.4H34.36v-1H37a4.22,4.22,0,1,0,0-8.44m0,6H34.36V30.31H37A1.82,1.82,0,0,1,37,34" transform="translate(0)"/></g></g></g></svg>