<svg xmlns="http://www.w3.org/2000/svg" xmlns:xlink="http://www.w3.org/1999/xlink" viewBox="0 0 48.75 48.75"><defs><style>.cls-1{fill:#FBA323;}.cls-2{clip-path:url(#clip-path);}</style><clipPath id="clip-path"><rect class="cls-1" width="48.75" height="48.75"/></clipPath></defs><title>Ресурс 1</title><g id="Слой_2" data-name="Слой 2"><g id="Слой_1-2" data-name="Слой 1"><g class="cls-2"><path fill="#FBA323" d="M44.37,0H10.77A4.38,4.38,0,0,0,6.4,4.38V41.6H1.17A1.18,1.18,0,0,0,0,42.78v1.6a4.38,4.38,0,0,0,4.38,4.38H38a4.38,4.38,0,0,0,4.38-4.37V7.15h5.22A1.18,1.18,0,0,0,48.75,6V4.38A4.38,4.38,0,0,0,44.37,0m-4,2.72a4.3,4.3,0,0,0-.23.73s0,.08,0,.13a4.46,4.46,0,0,0-.08.8v40a2,2,0,1,1-4,0v-1.6a1.18,1.18,0,0,0-1.17-1.18h-26V4.38a2,2,0,0,1,2-2H40.5c0,.08-.08.17-.12.26l0,.11M34.1,46.4H4.38a2,2,0,0,1-2-2V44H33.6v.42a4.34,4.34,0,0,0,.5,2m8.25-42a2,2,0,0,1,4,0V4.8h-4Z"/><path fill="#FBA323" d="M37,21.71a2.34,2.34,0,0,0-1.24-1.51c-2-.92-3.34-1.57-4.23-2-1.61-.79-2-1-2.8-1a3.31,3.31,0,0,0-1.44.33l-5.6,2.66a2.34,2.34,0,0,0-1.23,1.51,15.37,15.37,0,0,0-.5,3.91c0,5,2.35,9.36,6.79,12.55a3.36,3.36,0,0,0,4,0c4.44-3.19,6.79-7.53,6.79-12.55a15.33,15.33,0,0,0-.5-3.92Zm-2,3.92A12.7,12.7,0,0,1,29.3,36.14a.85.85,0,0,1-1,0,12.59,12.59,0,0,1-5.34-13.74c2.12-1,3.46-1.63,4.34-2.06,1.31-.63,1.32-.63,1.52-.63s.21,0,1.58.66c.82.39,2.16,1,4.29,2A12.73,12.73,0,0,1,35,25.62"/><path fill="#FBA323" d="M33,23a1.24,1.24,0,0,0-.84.46c-2.25,2.77-3.42,4.24-4,5l-.4.5,0,0c-.27-.26-.74-.72-1.58-1.5a1.25,1.25,0,0,0-1.77,0,1.25,1.25,0,0,0,0,1.77l1.92,1.82a2.1,2.1,0,0,0,1.45.58,2.13,2.13,0,0,0,1.64-.79l4.72-5.85a1.25,1.25,0,0,0-.19-1.76A1.23,1.23,0,0,0,33,23"/><path fill="#FBA323" d="M36.29,6.55H12.74a1.25,1.25,0,1,0,0,2.5H36.29a1.25,1.25,0,0,0,0-2.5"/><path fill="#FBA323" d="M18.28,18H12.74a1.25,1.25,0,0,0,0,2.5h5.54a1.25,1.25,0,0,0,0-2.5"/><path fill="#FBA323" d="M36.29,12H12.74a1.25,1.25,0,0,0,0,2.5H36.29a1.25,1.25,0,0,0,0-2.5"/></g></g></g></svg>