<svg xmlns="http://www.w3.org/2000/svg" viewBox="0 0 32 25.51"><defs><style>.cls-1{fill:#A1A1A1;}</style></defs><title>Ресурс 1</title><g id="Слой_2" data-name="Слой 2"><g id="Слой_1-2" data-name="Слой 1"><path class="cls-1" d="M10.38,25.51a1,1,0,0,1-1-1V20.93L1.49,25.38A1,1,0,0,1,0,24.51V1A1,1,0,0,1,1.5.14l7.71,4.5.16.12V1A1,1,0,0,1,10.87.13L31.49,11.78a1,1,0,0,1,0,1.74L10.87,25.38A1,1,0,0,1,10.38,25.51ZM2,2.74V22.8L21.13,12a1,1,0,0,1,1.07,1.69L11.38,21.35v1.43L29,12.66,11.38,2.71V14.9a1,1,0,0,1-2,.17L7.8,6.13Z"/></g></g></svg>