<svg xmlns="http://www.w3.org/2000/svg" viewBox="0 0 37.95 20.02"><defs><style>.cls-1{fill:#A1A1A1;}</style></defs><title>Ресурс 1</title><g id="Слой_2" data-name="Слой 2"><g id="Слой_1-2" data-name="Слой 1"><path class="cls-1" d="M33.76,6,26.35,5a2.94,2.94,0,0,1-1.68-.8L22,1.47A4.91,4.91,0,0,0,18.44,0H8.86A4.89,4.89,0,0,0,5.36,1.46L1.86,5A6.29,6.29,0,0,0,0,9.47v2.17a1,1,0,1,0,2,0V9.47A4.28,4.28,0,0,1,3.3,6.42L6.8,2.88A2.86,2.86,0,0,1,8.86,2h9.57a2.9,2.9,0,0,1,2.11.87l2.69,2.73A5,5,0,0,0,26.07,7l7.42,1a2.8,2.8,0,0,1,2.43,2.76V12.8a1.68,1.68,0,0,1-1.75,1.69H33.09a4.52,4.52,0,0,0-8.81,0H12.93a4.52,4.52,0,0,0-8.81,0h-3a1,1,0,1,0,0,2h3a4.52,4.52,0,0,0,8.81,0H24.28a4.52,4.52,0,0,0,8.81,0h1.09a3.7,3.7,0,0,0,3.78-3.71V10.75A4.83,4.83,0,0,0,33.76,6M8.52,18A2.49,2.49,0,1,1,11,15.5,2.5,2.5,0,0,1,8.52,18m20.16,0a2.49,2.49,0,1,1,2.49-2.54s0,0,0,0,0,0,0,0A2.5,2.5,0,0,1,28.68,18"/></g></g></svg>