<svg xmlns="http://www.w3.org/2000/svg" viewBox="0 0 35.79 28.89"><defs><style>.cls-1{fill:#A1A1A1;}</style></defs><title>Ресурс 1</title><g id="Слой_2" data-name="Слой 2"><g id="Слой_1-2" data-name="Слой 1"><path class="cls-1" d="M34.78,21.07H22.38L27.85,7.44l4,10.32A1,1,0,0,0,33.7,17L28.81,4.3A1,1,0,0,0,28.64,4a1,1,0,0,0-.86-.49H22.25a4.53,4.53,0,0,0-8.83,0H7.91a1,1,0,0,0-1,1L.11,21.43a1,1,0,0,0-.07.4,1,1,0,0,0,0,.26c0,3.75,3.56,6.81,7.93,6.81s7.93-3.05,7.93-6.81a1,1,0,0,0-1-1H2.44L7.91,7.44l4,10.32A1,1,0,0,0,13.76,17L9.35,5.54h4.08a4.53,4.53,0,0,0,8.83,0h4.17L20.05,21.43a1,1,0,0,0-.07.4,1,1,0,0,0,0,.26c0,3.75,3.56,6.81,7.93,6.81s7.93-3.05,7.93-6.81a1,1,0,0,0-1-1M7.93,26.87c-2.82,0-5.19-1.62-5.77-3.77H13.69c-.57,2.15-2.94,3.77-5.77,3.77M17.84,7a2.5,2.5,0,1,1,2.5-2.51A2.51,2.51,0,0,1,17.84,7m10,19.83c-2.82,0-5.19-1.62-5.77-3.77H33.63c-.58,2.15-2.94,3.77-5.77,3.77"/></g></g></svg>