<svg xmlns="http://www.w3.org/2000/svg" viewBox="0 0 34.36 29.54"><defs><style>.cls-1{fill:#A1A1A1;}</style></defs><title>Ресурс 1</title><g id="Слой_2" data-name="Слой 2"><g id="Слой_1-2" data-name="Слой 1"><path class="cls-1" d="M34.15,13.26a1,1,0,0,0-.82-.4L24.55,13V5.83a1,1,0,0,0-1-1H14.25V1a1,1,0,0,0-1-1H8.05A1,1,0,0,0,7,1V15.36a1,1,0,0,0,2,0V2h3.15V5.91a1,1,0,0,0,1.41.93h8.89V13l-4.33.06a4.67,4.67,0,0,0-3.34,1.39L11.33,18a4,4,0,0,1-2.82,1.17H1a1,1,0,1,0,0,2H8.51a6,6,0,0,0,4.26-1.77l3.52-3.55a2.65,2.65,0,0,1,1.91-.78L32,14.91l-3.75,12.6H2V24.77a1,1,0,0,0-2,0v3.75a1,1,0,0,0,1,1H29a1,1,0,0,0,1-.72l4.36-14.65A1,1,0,0,0,34.15,13.26Z"/><path class="cls-1" d="M27.08,20.63a3.53,3.53,0,1,0-3.53,3.52A3.53,3.53,0,0,0,27.08,20.63Zm-5,0a1.5,1.5,0,1,1,1.5,1.5A1.5,1.5,0,0,1,22.05,20.63Z"/></g></g></svg>