<svg xmlns="http://www.w3.org/2000/svg" viewBox="0 0 36.02 36.01">
    <linearGradient id="linear-gradient">
        <stop offset="0%" stop-color="#F6C46A"/>
        <stop offset="50%" stop-color="#FF9C23"/>
        <stop offset="100%" stop-color="#FF8209"/>
    </linearGradient>
    <defs>
        <style>.cls-1{fill:none;}.cls-2{clip-path:url(#clip-path);}</style>
        <clipPath id="clip-path" transform="translate(0 0)">
            <rect class="cls-1" width="36.02" height="36.01"/>
        </clipPath>
    </defs>
    <g id="Слой_2" data-name="Слой 2">
        <g id="Слой_1-2" data-name="Слой 1">
            <g class="cls-2" fill="url(#linear-gradient)">
                <path class="cls-3"
                      d="M35.72,10,26,.29a1,1,0,0,0-1.41,0L20.91,4a1,1,0,0,0,0,1.41l9,9a1,1,0,0,0-.07.18c-.68,3.54-1.47,7.13-3,8.69-1.82,1.83-3.84,3.56-5.79,5.23s-4,3.45-5.9,5.33a.77.77,0,0,1-1.07,0,.76.76,0,0,1,0-1.07h0l5.62-5.63a1,1,0,1,0-1.41-1.41l-6.94,6.94a.78.78,0,0,1-1.06,0,.76.76,0,0,1,0-1.07l6.15-6.16h0l.78-.79a1,1,0,1,0-1.41-1.41L9.05,29.9l-1,1a.78.78,0,0,1-1.07,0,.76.76,0,0,1,0-1.07l6.94-6.94a1,1,0,0,0-1.42-1.41L6.86,27.13A.75.75,0,1,1,5.8,26.06l4.45-4.45a1,1,0,0,0-1.41-1.41L4.38,24.65a2.73,2.73,0,0,0,.72,4.4,2.74,2.74,0,0,0,2.39,4.1,2.79,2.79,0,0,0,.69-.1,2.72,2.72,0,0,0,3.92,1.43,2.74,2.74,0,0,0,4.4.72c.36-.36.73-.71,1.1-1.06.37.35.74.7,1.1,1.06a2.72,2.72,0,0,0,4.4-.72A2.72,2.72,0,0,0,27,33.05a2.8,2.8,0,0,0,.69.1,2.74,2.74,0,0,0,2.39-4.1,2.72,2.72,0,0,0,.72-4.4L29.3,23.12a26.59,26.59,0,0,0,2.38-7.77,1,1,0,0,0,.38-.23l3.66-3.67a1,1,0,0,0,0-1.41M21.18,33.8a.78.78,0,0,1-1.07,0c-.34-.34-.7-.67-1-1l1.16-1,1,1h0a.76.76,0,0,1,0,1.07M25,32.63a.78.78,0,0,1-1.07,0l-2.17-2.18.55-.47.6-.51L25,31.56a.76.76,0,0,1,0,1.07m3.27-1.7a.78.78,0,0,1-1.07,0,1,1,0,0,0-.37-.23,2.72,2.72,0,0,0-.42-.56l-2-2,1.13-1,2.72,2.72a.76.76,0,0,1,0,1.07m1.16-3.8a.78.78,0,0,1-1.07,0L27,25.79c.37-.34.73-.69,1.09-1l1.32,1.32a.76.76,0,0,1,0,1.07M31.35,13,23,4.67l2.25-2.25,8.33,8.34Z"
                      transform="translate(0 0)"/>
                <path class="cls-3"
                      d="M4.53,17.14h0a1,1,0,0,0,.69-.27l9-8.54a5.65,5.65,0,0,0,3.3,1.89,7.47,7.47,0,0,1,1.61.55C21.68,12,22,12.56,22.5,13.58A14.34,14.34,0,0,0,25,17.08a.76.76,0,0,1,0,1.07c-.28.26-.69.31-.77.22l-3.86-4.07a1,1,0,0,0-1.41,0c-1.84,1.75-3.62,1.64-5.76-.35a1,1,0,1,0-1.36,1.46c3.22,3,5.88,2.35,7.73,1l3.22,3.39a2.16,2.16,0,0,0,1.6.66,3,3,0,0,0,2-.8,2.76,2.76,0,0,0,.11-3.89,12.43,12.43,0,0,1-2.23-3.06C23.55,11.3,23,10.46,20.07,9a9.36,9.36,0,0,0-2-.7,3.79,3.79,0,0,1-2.51-1.53A1,1,0,0,0,15.29,6L11.73,2.21A1,1,0,0,0,11,1.9a1,1,0,0,0-.72.27l-10,9.48a1,1,0,0,0,0,1.41l3.56,3.77a1,1,0,0,0,.7.31M11,4.31l2.19,2.32L4.6,14.73,2.41,12.41Z"
                      transform="translate(0 0)"/>
            </g>
        </g>
    </g>
</svg>