<svg xmlns="http://www.w3.org/2000/svg" viewBox="0 0 36.02 36.02">
    <linearGradient id="linear-gradient">
        <stop offset="0%" stop-color="#F6C46A"/>
        <stop offset="50%" stop-color="#FF9C23"/>
        <stop offset="100%" stop-color="#FF8209"/>
    </linearGradient>
    <defs>
        <style>.cls-2{clip-path:url(#clip-path);}</style>
        <clipPath id="clip-path">
            <rect class="cls-1" width="36.02" height="36.02"/>
        </clipPath>
    </defs>
    <g id="Слой_2" data-name="Слой 2">
        <g id="Слой_1-2" data-name="Слой 1">
            <g class="cls-2" fill="url(#linear-gradient)">
                <path class="cls-3"
                      d="M35.24,22.51a3.07,3.07,0,0,0,.78-2,3,3,0,0,0-3-3H26.19A17.8,17.8,0,0,0,27,11.28v-.11A4,4,0,0,0,23,7.1h-.6a2,2,0,0,0-1.93,1.53c-.81,3.24-2,6.74-4.39,8.14-.35.08-1.55.18-2.28.24s-1.39.12-1.68.17a1,1,0,0,0-.47,1.75c2.09,1.75,2.48,10.53.63,14a1,1,0,0,0,.59,1.43,40.32,40.32,0,0,0,8.74,1.42H31a3,3,0,0,0,3-3,3.06,3.06,0,0,0-.22-1.15,3.07,3.07,0,0,0,1.44-5,3.08,3.08,0,0,0,0-4.1m-2.22,1a1,1,0,0,1,0,2.1,1,1,0,0,0,0,2,1,1,0,0,1,0,2.1H31a1,1,0,0,0,0,2,1,1,0,0,1,0,2.1H21.66a39,39,0,0,1-7.07-1C15.93,29,15.83,22.4,14.15,19c2.07-.18,2.53-.25,2.86-.43,3.14-1.75,4.51-5.76,5.42-9.47H23a2,2,0,0,1,2,2.07v.11a17.23,17.23,0,0,1-1.15,6.82,1,1,0,0,0,1,1.31H33a1.05,1.05,0,0,1,0,2.1,1,1,0,0,0,0,2"/>
                <path class="cls-3"
                      d="M6.87,16.71h-5A1.9,1.9,0,0,0,0,18.58V34.15A1.9,1.9,0,0,0,1.92,36h5c1,0,2.5-.59,3.46-3.37a20,20,0,0,0,.89-6.27c0-4.45-1.14-9.66-4.35-9.66M8.44,32c-.44,1.27-1,2-1.57,2H2V18.71H6.87c1.13,0,2.35,3.08,2.35,7.66A18.24,18.24,0,0,1,8.44,32"/>
                <path class="cls-3" d="M23.17,5.22a1,1,0,0,0,1-1V1a1,1,0,0,0-2,0V4.22a1,1,0,0,0,1,1"/>
                <path class="cls-3" d="M18,7a1,1,0,0,0,1.39-1.44L17,3.28a1,1,0,1,0-1.39,1.44Z"/>
                <path class="cls-3"
                      d="M27.65,7.27a1,1,0,0,0,.7-.28L30.7,4.71A1,1,0,1,0,29.3,3.28L27,5.56a1,1,0,0,0,.7,1.72"/>
                <path class="cls-3"
                      d="M5.45,27.37A2.55,2.55,0,1,0,8,29.92a2.56,2.56,0,0,0-2.56-2.55m0,3.1A.55.55,0,1,1,6,29.92a.55.55,0,0,1-.56.55"/>
            </g>
        </g>
    </g>
</svg>