<svg xmlns="http://www.w3.org/2000/svg" viewBox="0 0 36.02 36.02">
    <linearGradient id="linear-gradient">
        <stop offset="0%" stop-color="#F6C46A"/>
        <stop offset="50%" stop-color="#FF9C23"/>
        <stop offset="100%" stop-color="#FF8209"/>
    </linearGradient>
    <defs>
        <style>.cls-1{fill:none;}.cls-2{clip-path:url(#clip-path);}</style>
        <clipPath id="clip-path">
            <rect class="cls-1" width="36.02" height="36.02"/>
        </clipPath>
    </defs>
    <g id="Слой_2" data-name="Слой 2">
        <g id="Слой_1-2" data-name="Слой 1">
            <g class="cls-2" fill="url(#linear-gradient)">
                <path class="cls-3"
                      d="M31.32,30.46V1a1,1,0,0,0-1-1H1A1,1,0,0,0,0,1V30.46a1,1,0,0,0,1,1H30.32a1,1,0,0,0,1-1m-2-1H2V2H29.32Z"/>
                <path class="cls-3"
                      d="M35,2.63a1,1,0,0,0-1,1V34H4.17a1,1,0,1,0,0,2H35a1,1,0,0,0,1-1V3.63a1,1,0,0,0-1-1"/>
                <path class="cls-3" d="M7.48,16.73h9.85a1,1,0,0,0,0-2H7.48a1,1,0,1,0,0,2"/>
                <path class="cls-3" d="M21.61,16.73h2.22a1,1,0,1,0,0-2H21.61a1,1,0,0,0,0,2"/>
                <path class="cls-3" d="M7.48,9.55h9.85a1,1,0,0,0,0-2H7.48a1,1,0,0,0,0,2"/>
                <path class="cls-3" d="M21.61,9.55h2.22a1,1,0,0,0,0-2H21.61a1,1,0,0,0,0,2"/>
                <path class="cls-3" d="M7.48,23.92h9.85a1,1,0,0,0,0-2H7.48a1,1,0,1,0,0,2"/>
                <path class="cls-3" d="M21.61,23.92h2.22a1,1,0,0,0,0-2H21.61a1,1,0,0,0,0,2"/>
            </g>
        </g>
    </g>
</svg>