<svg xmlns="http://www.w3.org/2000/svg" xmlns:xlink="http://www.w3.org/1999/xlink" viewBox="0 0 48.75 48.75"><defs><style>.cls-2{clip-path:url(#clip-path);}</style><clipPath id="clip-path"><rect class="cls-1" width="48.75" height="48.75"/></clipPath></defs><title>Ресурс 1</title><g id="Слой_2" data-name="Слой 2"><g id="Слой_1-2" data-name="Слой 1"><g class="cls-2">
<path fill="#1196A7" d="M42.58,0H6.17A6.1,6.1,0,0,0,0,6.17V42.58a6.1,6.1,0,0,0,6.17,6.17H42.58a6.1,6.1,0,0,0,6.17-6.17V6.17A6.1,6.1,0,0,0,42.58,0m3.76,25.58v17a3.72,3.72,0,0,1-3.76,3.76h-17V25.58Zm0-19.41v17H25.58V2.4h17a3.72,3.72,0,0,1,3.76,3.76M23.17,25.58V46.34h-17a3.72,3.72,0,0,1-3.76-3.76v-17Zm0-23.17V23.17H2.41v-17A3.72,3.72,0,0,1,6.17,2.4Z"/>
<path fill="#1196A7" d="M7.82,14h3.76v3.76a1.2,1.2,0,1,0,2.41,0V14h3.76a1.2,1.2,0,1,0,0-2.4H14V7.82a1.2,1.2,0,1,0-2.41,0v3.76H7.82a1.2,1.2,0,0,0,0,2.4"/>
<path fill="#1196A7" d="M7.81,40.94a1.15,1.15,0,0,0,1.69,0l3.29-3.29,3.29,3.29a1.18,1.18,0,0,0,1.69,0,1.17,1.17,0,0,0,0-1.69L14.48,36l3.29-3.29a1.18,1.18,0,0,0,0-1.69,1.17,1.17,0,0,0-1.69,0l-3.29,3.29L9.5,31a1.2,1.2,0,1,0-1.69,1.69L11.1,36,7.81,39.25a1.17,1.17,0,0,0,0,1.69"/>
<path fill="#1196A7" d="M40.93,11.59H31A1.2,1.2,0,1,0,31,14h9.93a1.2,1.2,0,0,0,0-2.41"/>
<path fill="#1196A7" d="M31,39.65h9.93a1.2,1.2,0,0,0,0-2.4H31a1.2,1.2,0,1,0,0,2.4"/>
<path fill="#1196A7" d="M31,34.68h9.93a1.2,1.2,0,0,0,0-2.4H31a1.2,1.2,0,1,0,0,2.4"/></g></g></g></svg>