<svg xmlns="http://www.w3.org/2000/svg" xmlns:xlink="http://www.w3.org/1999/xlink" viewBox="0 0 48.75 48.76"><defs><style>.cls-1{fill:none;}.cls-2{clip-path:url(#clip-path);}</style><clipPath id="clip-path" transform="translate(0)"><rect class="cls-1" width="48.75" height="48.76"/></clipPath></defs><title>Ресурс 1</title><g id="Слой_2" data-name="Слой 2"><g id="Слой_1-2" data-name="Слой 1"><g class="cls-2">
<path fill="#1196A7" d="M43,17A18.76,18.76,0,0,0,5.7,17a7.66,7.66,0,0,0-3.49,2A7.58,7.58,0,0,0,6.29,31.84a1.21,1.21,0,0,0,.49.11l.23,0H7l.52,0h1.6a1.18,1.18,0,0,0,1.18-1.17V18A1.18,1.18,0,0,0,9.17,16.8H8.08a16.4,16.4,0,0,1,32.58,0H39.57A1.18,1.18,0,0,0,38.4,18v12.8A1.18,1.18,0,0,0,39.57,32H40.8v1.23C40.8,39,36.32,43.53,30.12,44a3.57,3.57,0,1,0,0,2.35c7.55-.45,13-5.93,13-13.13V31.69a7.7,7.7,0,0,0,3.39-2A7.58,7.58,0,0,0,43,17m3.37,7.33a5.23,5.23,0,0,1-4.58,5.2,5.81,5.81,0,0,1-.66,0h-.42V19.15h.44a5.23,5.23,0,0,1,5.22,5.21M2.36,23.75a5.21,5.21,0,0,1,4.57-4.56,5.05,5.05,0,0,1,.62,0H8V29.6H7.57a5.54,5.54,0,0,1-.66,0,5.23,5.23,0,0,1-4.56-5.82M28,45.18A1.23,1.23,0,1,1,26.77,44,1.23,1.23,0,0,1,28,45.18" transform="translate(0)"/>
<path fill="#1196A7" d="M33.79,24.38a9.42,9.42,0,1,0-9.42,9.42,9.43,9.43,0,0,0,9.42-9.42m-16.61,0a7.19,7.19,0,1,1,7.19,7.19,7.2,7.2,0,0,1-7.19-7.19" transform="translate(0)"/>
<path fill="#1196A7" d="M27,21.57l-3.25,3.25-1.64-1.64a1.11,1.11,0,0,0-1.57,1.58L23,27.19a1.12,1.12,0,0,0,1.57,0l4-4A1.11,1.11,0,0,0,27,21.57" transform="translate(0)"/></g></g></g></svg>