<svg xmlns="http://www.w3.org/2000/svg" xmlns:xlink="http://www.w3.org/1999/xlink" viewBox="0 0 56.75 56.26"><defs><style>.cls-2{clip-path:url(#clip-path);}</style><clipPath id="clip-path" transform="translate(0 0)"><rect class="cls-1" width="56.75" height="56.26"/></clipPath></defs><title>Ресурс 1</title><g id="Слой_2" data-name="Слой 2"><g id="Слой_1-2" data-name="Слой 1"><g class="cls-2">
<path fill="#1196A7" d="M46.7,19.29A1.24,1.24,0,0,0,47.42,17L37,9.46a1.24,1.24,0,0,0-1.46,2L46,19.05a1.23,1.23,0,0,0,.73.24" transform="translate(0 0)"/>
<path fill="#1196A7" d="M21.84,13.14h0a1.24,1.24,0,0,0-1.42-1l-12.75,2a1.24,1.24,0,0,0,.19,2.46h.2l12.75-2a1.24,1.24,0,0,0,1-1.42" transform="translate(0 0)"/>
<path fill="#1196A7" d="M56.24,14.33,36.83.24A1.24,1.24,0,0,0,35.1.51L27.17,11.43,26.15,5a1.23,1.23,0,0,0-.5-.81A1.24,1.24,0,0,0,24.73,4L1,7.71A1.24,1.24,0,0,0,0,9.13L4.64,38.28a1.23,1.23,0,0,0,.5.81,1.21,1.21,0,0,0,.92.22l5-.8v8.84a1.24,1.24,0,0,0,1.24,1.24h24a1.24,1.24,0,0,0,1.24-1.24V45.13a11.5,11.5,0,0,0,1.27-.89l1.65,1.65-.43.43a1.24,1.24,0,0,0,0,1.75l7.83,7.83a1.24,1.24,0,0,0,1.76,0l2.61-2.61a1.24,1.24,0,0,0,0-1.75l-7.83-7.83a1.28,1.28,0,0,0-1.75,0l-.43.43-1.65-1.65a11.38,11.38,0,0,0,2.5-7.13c0-.25,0-.5,0-.75L56.51,16.06a1.24,1.24,0,0,0-.28-1.73M13.55,19.08H35v5.41A11.39,11.39,0,0,0,31,24l-.23,0H17.84a1.24,1.24,0,0,0,0,2.48h6.74A11.4,11.4,0,0,0,21,31.36H17.84a1.24,1.24,0,0,0,0,2.48h2.55a11.49,11.49,0,0,0-.1,1.53,11.33,11.33,0,0,0,.51,3.37h-3a1.24,1.24,0,0,0,0,2.48h4.07a11.41,11.41,0,0,0,6,4.9H13.55ZM23.74,39.41a8.8,8.8,0,0,1-1-4,8.91,8.91,0,0,1,8.91-8.91,8.9,8.9,0,0,1,8.85,7.94,9,9,0,0,1,.05,1A8.84,8.84,0,0,1,38,41.66h0a8.91,8.91,0,0,1-14.23-2.25M37.53,22l4.1,3a1.28,1.28,0,0,0,1.73-.28A1.24,1.24,0,0,0,43.09,23l-5.56-4V17.84a1.24,1.24,0,0,0-1.24-1.24h-2l-1.62-1.17a1.24,1.24,0,0,0-2,1.17h-4.2L36.38,3,53.78,15.6,42.34,31.36a11.32,11.32,0,0,0-4.81-5.76Zm-26.46-4.2v3.22l-2.24.36a1.24,1.24,0,0,0,.39,2.45l1.85-.29v5L10,28.71a1.24,1.24,0,0,0-1,1.42,1.25,1.25,0,0,0,1.42,1l.7-.11v5l-4.17.66L2.66,10,23.89,6.6l1.22,7.67L23.42,16.6H12.31a1.24,1.24,0,0,0-1.24,1.24M42.65,47.2l.85-.85,6.07,6.07-.86.86Z" transform="translate(0 0)"/>
<path fill="#1196A7" d="M39.37,35.37a7.7,7.7,0,1,0-7.7,7.7,7.7,7.7,0,0,0,7.7-7.7m-2.48,0a5.22,5.22,0,1,1-5.22-5.22,5.22,5.22,0,0,1,5.22,5.22" transform="translate(0 0)"/></g></g></g></svg>