<svg id="Слой_1" data-name="Слой 1" xmlns="http://www.w3.org/2000/svg" width="36" height="36.22" viewBox="0 0 36 36.22">
    <defs>
        <style>
            .cls-1 {
            fill-rule: evenodd;
            fill: url(#Безымянный_градиент_14);
            }
        </style>
        <linearGradient id="Безымянный_градиент_14" data-name="Безымянный градиент 14" x1="11.89" y1="15.94" x2="38.6"
                        y2="42.65" gradientUnits="userSpaceOnUse">
            <stop offset="0" stop-color="#ffcb52"/>
            <stop offset="1" stop-color="#ff7b02"/>
        </linearGradient>
    </defs>
    <title>03_atlas-gradient</title>
    <path class="cls-1"
          d="M42.85,31.71,41.46,29.4l-.64-1.6-.16-2.15a.94.94,0,0,0-.06-.29l-.82-2.09a1.21,1.21,0,0,0-.24-.35l-1.27-1.25a1,1,0,0,0-1.33-.06l-2.22,1.8a1.14,1.14,0,0,0-.3.39l-.86,2.05-.9.58-2-.57c2.28-2.68,4.18-5.67,4.18-9.17a9.43,9.43,0,0,0-9.69-9.8,9.42,9.42,0,0,0-9.68,9.8c0,4.54,3.19,8.23,6.27,11.49l-1,.27-1.34-.31-.06-1.52a1,1,0,0,0-.57-.87l-1.4-.65a1,1,0,0,0-1,.07l-2,1.32-2,.3a.9.9,0,0,0-.52.24L10.79,28a1.13,1.13,0,0,0-.29.43l-.2.61-.48.23a1,1,0,0,0-.57.86L9.17,32l-.68.12a1,1,0,0,0-.68.46l-.66,1.09a1,1,0,0,0-.11.8l1.22,4.12a1,1,0,0,0,.88.71l1.27.11a1,1,0,0,0,.94-.48l.39-.64a1,1,0,0,0,.43-.16l.85-.56a1,1,0,0,0,.38-.47l1.86,1.65a1,1,0,0,0,.8.25l.49-.07a1.11,1.11,0,0,0,.52-.23l.56-.49.48,0,.83,1,.63,1.13a1,1,0,0,0,.4.4l1,.52,1,.93a1,1,0,0,0,.82.27l1.76-.23.64.28a1,1,0,0,0,.38.08h.64a1.17,1.17,0,0,0,.72-.3l.34-.34,2.36.54a1.1,1.1,0,0,0,.54,0l2.44-.81a.87.87,0,0,0,.27-.14l.84-.59a1,1,0,0,0,.41-.72h0l.2.13a.76.76,0,0,0,.18.09l.75.28a1,1,0,0,0,.43.06h.12L36,42.14a1,1,0,0,0,.85.85l.78.11h.14a1,1,0,0,0,.76-.35l1.44-1.67a1,1,0,0,0,.24-.62l.08-2.31a1.79,1.79,0,0,0,0-.23L40,36.79a1,1,0,0,0-.16-.37l-1.55-2.26-.53-.81.56-.75.84.89a1,1,0,0,0,1,.28l2.12-.58a1,1,0,0,0,.67-.59,1,1,0,0,0-.08-.89ZM29.1,16.13a4,4,0,1,1-4-4,4,4,0,0,1,4,4Zm-6,0a2,2,0,1,1,2,2,2,2,0,0,1-2-2Zm-5.7.56h0a7.41,7.41,0,0,1,7.68-7.8,7.42,7.42,0,0,1,7.69,7.8c0,4.1-3.41,7.68-6.42,10.84-.43.46-.86.9-1.27,1.35-.39-.43-.8-.86-1.22-1.3-3-3.18-6.46-6.79-6.46-10.89Zm22.76,15h0l-.45-.48L39,29.67a1,1,0,0,0-.61-.53,1,1,0,0,0-.79.09l-.26.14a1,1,0,0,0-.48,1.06L37,31l-1.27,1.7a1,1,0,0,0,0,1.15l2.38,3.52.16.83-.06,1.84-.43.5-.14-1a1,1,0,0,0-1.07-.85l-.83.07-.44-.17-1.48-.94a1,1,0,0,0-1.53.75l-.12,1.17-.34.25-2,.67-2.63-.6a1,1,0,0,0-.93.27l-.44.43-.72-.3a1.08,1.08,0,0,0-.53-.08l-1.55.2-.74-.69A1.16,1.16,0,0,0,22,39.6l-.83-.45-.54-1L20.53,38l-1.16-1.37a1,1,0,0,0-.69-.35l-1.3-.11a1,1,0,0,0-.74.24l-.5.44-1.9-1.7a1,1,0,0,0-.69-.25l-.94,0a1,1,0,0,0-1,.81l-.08.39-.19.12h0a1,1,0,0,0-1,.47l-.37.62-.89-3L9.28,34l1-.18a1,1,0,0,0,.83-.94l.09-2.12.33-.16a1,1,0,0,0,.52-.58l.25-.76.64-.57,1.92-.29a.93.93,0,0,0,.39-.15L17,27.15l.34.16L17.43,29a1,1,0,0,0,.77.94l2.33.53h.09l.14,0,.11,0H21l2.26-.61c.38.4.75.8,1.1,1.2a1,1,0,0,0,.74.33,1,1,0,0,0,.75-.33c.61-.69,1.28-1.4,2-2.12.44-.46.88-.92,1.32-1.4l.05,0,3.35.94a1,1,0,0,0,.81-.12l1.53-1a1,1,0,0,0,.38-.45l.89-2.11,1.34-1.08.48.47L38.68,26l.16,2.15a.94.94,0,0,0,.06.29l.73,1.83a.61.61,0,0,0,.07.14l.76,1.25Z"
          transform="translate(-7 -6.89)"/>
</svg>
