<svg xmlns="http://www.w3.org/2000/svg" xmlns:xlink="http://www.w3.org/1999/xlink" viewBox="0 0 48.75 52"><defs><style>.cls-2{clip-path:url(#clip-path);}</style><clipPath id="clip-path"><rect class="cls-1" width="48.75" height="52"/></clipPath></defs><title>Ресурс 1</title><g id="Слой_2" data-name="Слой 2"><g id="Слой_1-2" data-name="Слой 1"><g class="cls-2">
<path fill="#1196A7" d="M35.78,44.17l2.61-1.51a1.08,1.08,0,0,0,.54-1,1.09,1.09,0,0,0-.68-.93L24.74,35.32a1.09,1.09,0,0,0-1.41,1.41l5.39,13.51a1.09,1.09,0,0,0,.93.68,1.11,1.11,0,0,0,1-.54l1.5-2.61,3.9,3.9a1.09,1.09,0,0,0,1.54,0l2.07-2.07a1.09,1.09,0,0,0,0-1.54Zm-2.85-.37a1.08,1.08,0,0,0,.31.91l4.13,4.13-.53.53L32.7,45.24a1.08,1.08,0,0,0-.77-.32h-.14a1.1,1.1,0,0,0-.8.54L29.9,47.36l-3.62-9.07,9.07,3.62L33.46,43a1.1,1.1,0,0,0-.53.8"/>
<path fill="#1196A7" d="M22.5,35.59a1.09,1.09,0,0,0,.77-1.86l-1.58-1.58h0a1.09,1.09,0,1,0-1.54,1.54l1.58,1.59a1.09,1.09,0,0,0,.77.32"/>
<path fill="#1196A7" d="M22.33,37.34a1.09,1.09,0,0,0-1.09-1.09H19a1.09,1.09,0,1,0,0,2.18h2.24a1.09,1.09,0,0,0,1.09-1.09"/>
<path fill="#1196A7" d="M21.4,39.28l-1.59,1.58a1.09,1.09,0,0,0,.77,1.86,1.07,1.07,0,0,0,.77-.32l1.59-1.59a1.09,1.09,0,0,0,0-1.54,1.11,1.11,0,0,0-1.54,0"/>
<path fill="#1196A7" d="M25.34,34.33a1.09,1.09,0,0,0,1.09-1.09V31a1.09,1.09,0,1,0-2.18,0v2.24a1.09,1.09,0,0,0,1.09,1.09"/>
<path fill="#1196A7" d="M28.82,34.94l1.59-1.59a1.09,1.09,0,0,0-.77-1.86h0a1.08,1.08,0,0,0-.77.32L27.28,33.4a1.09,1.09,0,0,0,1.54,1.54"/>
<path fill="#1196A7" d="M47.59,13.88H44.27L41.41,6.8a1.16,1.16,0,0,0-1.08-.73H32.46V1.16A1.16,1.16,0,0,0,31.3,0H1.16A1.17,1.17,0,0,0,0,1.16V26a1.17,1.17,0,0,0,1.16,1.16h6.1a5.85,5.85,0,0,0,11.52,0h14.9a5.85,5.85,0,0,0,11.52,0h2.39A1.17,1.17,0,0,0,48.75,26V15a1.17,1.17,0,0,0-1.16-1.16M39.44,22.5a3.58,3.58,0,1,1-3.53,3.58,3.56,3.56,0,0,1,3.53-3.58m7-6.3v8.63H45.16a5.84,5.84,0,0,0-11.44,0H32.46V16.21Zm-14-2.33V8.4h7.08l2.21,5.48ZM13,22.5a3.58,3.58,0,1,1-3.53,3.58A3.56,3.56,0,0,1,13,22.5M30.13,2.33V24.84H18.75a5.84,5.84,0,0,0-11.45,0h-5V2.33Z"/></g></g></g></svg>