<svg xmlns="http://www.w3.org/2000/svg" viewBox="0 0 36.01 36.02"><defs><style>.cls-1{fill:#FFB33A;}</style></defs><title>Ресурс 1</title><g id="Слой_2" data-name="Слой 2"><g id="Capa_1" data-name="Capa 1"><path class="cls-1" d="M27.08,36h0a8.83,8.83,0,0,1-6.33-2.66,9.14,9.14,0,0,1,0-12.79h0a8.86,8.86,0,0,1,12.65,0,9.14,9.14,0,0,1,0,12.79A8.83,8.83,0,0,1,27.08,36Zm0-16.1A6.84,6.84,0,0,0,22.17,22h0a7.13,7.13,0,0,0,0,10A6.84,6.84,0,0,0,27.07,34h0A6.84,6.84,0,0,0,32,32a7.14,7.14,0,0,0,0-10A6.84,6.84,0,0,0,27.07,19.91Zm-5.61,1.36h0Z"/><path class="cls-1" d="M23.07,35.05H1a1,1,0,0,1-1-1L1.2,8a1,1,0,0,1,1-1H32.14a1,1,0,0,1,1,.89l1.49,14a1,1,0,1,1-2,.21l-1.4-13.1H3.15L2,33.05h21a1,1,0,1,1,0,2Z"/><path class="cls-1" d="M23.47,8.64a1,1,0,0,1-1-1,5.72,5.72,0,0,0-1.61-4.26A5.06,5.06,0,0,0,17.32,2c-2.48,0-5.15,1.77-5.15,5.64a1,1,0,0,1-2,0c0-5,3.6-7.64,7.15-7.64s7.15,2.62,7.15,7.64A1,1,0,0,1,23.47,8.64Z"/><path class="cls-1" d="M27.35,31.25a1,1,0,0,1-1-1V23.68a1,1,0,0,1,2,0v6.58A1,1,0,0,1,27.35,31.25Z"/><path class="cls-1" d="M27.35,31.25a1,1,0,0,1-.67-.26l-2.81-2.53A1,1,0,1,1,25.21,27l2.14,1.93L29.5,27a1,1,0,1,1,1.34,1.49L28,31A1,1,0,0,1,27.35,31.25Z"/></g></g></svg>