<svg xmlns="http://www.w3.org/2000/svg" viewBox="0 0 36.02 36.02"><defs><style>.cls-1{fill:#FFB33A;}</style></defs><title>Ресурс 1</title><g id="Слой_2" data-name="Слой 2"><g id="Capa_1" data-name="Capa 1"><path class="cls-1" d="M28.72,36H1a1,1,0,0,1-1-1V1A1,1,0,0,1,1,0H28.72a1,1,0,0,1,1,1V35A1,1,0,0,1,28.72,36ZM2,34H27.72V2H2Z"/><path class="cls-1" d="M22.34,9.72h-15a1,1,0,0,1,0-2h15a1,1,0,0,1,0,2Z"/><path class="cls-1" d="M22.34,14.43h-15a1,1,0,1,1,0-2h15a1,1,0,0,1,0,2Z"/><path class="cls-1" d="M22.34,19.4h-15a1,1,0,0,1,0-2h15a1,1,0,0,1,0,2Z"/><path class="cls-1" d="M32.5,36a1,1,0,0,1-1-1V1a1,1,0,0,1,2,0V35A1,1,0,0,1,32.5,36Z"/><path class="cls-1" d="M35,11.82a1,1,0,0,1-1-1V3.54l-1.4-1a1,1,0,1,1,1.2-1.6l1.8,1.35A1,1,0,0,1,36,3v7.79A1,1,0,0,1,35,11.82Z"/></g></g></svg>