<svg xmlns="http://www.w3.org/2000/svg" viewBox="0 0 36.02 36.02"><defs><style>.cls-1{fill:#FFB33A;}</style></defs><title>Ресурс 1</title><g id="Слой_2" data-name="Слой 2"><g id="Capa_1" data-name="Capa 1"><path class="cls-1" d="M12.25,23.88a1,1,0,0,1-.53-.15L.47,16.65a1,1,0,0,1,.14-1.77l5.73-2.42a1,1,0,1,1,.78,1.84L3.16,16l9.19,5.78L21,18a1,1,0,0,1,.79,1.84L12.65,23.8A1,1,0,0,1,12.25,23.88Zm14.51-6.23a1,1,0,0,1-.39-1.92L32.66,13l-4.52-2.3A1,1,0,1,1,29,9l6.42,3.27A1,1,0,0,1,35.41,14l-8.25,3.54A1,1,0,0,1,26.77,17.66Z"/><path class="cls-1" d="M12.25,29.94a1,1,0,0,1-.53-.15L.47,22.71a1,1,0,0,1,.14-1.77l5.73-2.42a1,1,0,0,1,.78,1.84L3.16,22l9.19,5.78L21,24.09a1,1,0,0,1,.79,1.84l-9.16,3.93A1,1,0,0,1,12.25,29.94Zm14.51-6.23a1,1,0,0,1-.39-1.92l6.29-2.7-4.52-2.3A1,1,0,1,1,29,15l6.42,3.27a1,1,0,0,1-.06,1.81l-8.25,3.54A1,1,0,0,1,26.77,23.71Z"/><path class="cls-1" d="M12.25,36a1,1,0,0,1-.53-.15L.47,28.79A1,1,0,0,1,.61,27L6.34,24.6a1,1,0,1,1,.78,1.84l-4,1.68,9.19,5.78,20.32-8.72-4.52-2.3A1,1,0,1,1,29,21.09l6.42,3.27a1,1,0,0,1-.06,1.81L12.65,35.93A1,1,0,0,1,12.25,36Z"/><path class="cls-1" d="M12.25,17.86a1,1,0,0,1-.53-.15L.47,10.63A1,1,0,0,1,.62,8.85L22.18.07A1,1,0,0,1,23,.1L35.45,6.2a1,1,0,0,1,0,1.82l-8.5,3.64a1,1,0,0,1-.79-1.84L32.62,7,22.52,2.09,3.18,10l9.16,5.76,7.59-3.26a1,1,0,0,1,.79,1.84l-8.08,3.46A1,1,0,0,1,12.25,17.86Z"/><path class="cls-1" d="M21.42,31.59a1,1,0,0,1-1-1V14L9.64,7.4a1,1,0,1,1,1-1.71l11.26,6.84a1,1,0,0,1,.48.85v17.2A1,1,0,0,1,21.42,31.59Zm5.21-2.24a1,1,0,0,1-1-1V11.69L15.06,5.29a1,1,0,1,1,1-1.71l11.05,6.69a1,1,0,0,1,.48.86V28.36A1,1,0,0,1,26.63,29.36Z"/></g></g></svg>