<svg xmlns="http://www.w3.org/2000/svg" xmlns:xlink="http://www.w3.org/1999/xlink" viewBox="0 0 34.21 31.9"><defs><style>.cls-1{fill:none;}.cls-2{clip-path:url(#clip-path);}.cls-3{fill:#FFB33A;}</style><clipPath id="clip-path" transform="translate(0 0)"><rect class="cls-1" width="34.21" height="31.9"/></clipPath></defs><title>Ресурс 1</title><g id="Слой_2" data-name="Слой 2"><g id="Слой_1-2" data-name="Слой 1"><g class="cls-2"><path class="cls-3" d="M19.47,31.9a2.58,2.58,0,0,1-1.87-.8,2.73,2.73,0,0,1,0-3.77h0a2.65,2.65,0,0,1,3.74,0,2.73,2.73,0,0,1,0,3.77A2.58,2.58,0,0,1,19.47,31.9ZM19,28.73a.73.73,0,0,0,0,1,.6.6,0,0,0,.86,0,.73.73,0,0,0,0-1A.6.6,0,0,0,19,28.73Z" transform="translate(0 0)"/><path class="cls-3" d="M28.93,31.9a2.58,2.58,0,0,1-1.87-.8,2.73,2.73,0,0,1,0-3.77h0a2.65,2.65,0,0,1,3.74,0,2.73,2.73,0,0,1,0,3.77A2.58,2.58,0,0,1,28.93,31.9Zm-.43-3.18a.73.73,0,0,0,0,1,.6.6,0,0,0,.86,0,.73.73,0,0,0,0-1,.6.6,0,0,0-.86,0Z" transform="translate(0 0)"/><path class="cls-3" d="M30.4,25.34H18a1,1,0,0,1-.95-.68l-2.58-7.71H11.86a1,1,0,0,1,0-2h3.35a1,1,0,0,1,.94.68l2.58,7.71H29.68l2.58-7.7a1,1,0,1,1,1.9.64l-2.81,8.38A1,1,0,0,1,30.4,25.34Z" transform="translate(0 0)"/><path class="cls-3" d="M31.78,20H21.47a1,1,0,1,1,0-2H31.78a1,1,0,1,1,0,2Z" transform="translate(0 0)"/><path class="cls-3" d="M13.08,10.89H1a1,1,0,0,1-1-1V1A1,1,0,0,1,1,0H13.08a1,1,0,0,1,1,1V9.89A1,1,0,0,1,13.08,10.89ZM2,8.89H12.08V2H2Z" transform="translate(0 0)"/><path class="cls-3" d="M30.2,10.89H18.12a1,1,0,0,1-1-1V1a1,1,0,0,1,1-1H30.2a1,1,0,0,1,1,1V9.89A1,1,0,0,1,30.2,10.89Zm-11.08-2H29.2V2H19.12Z" transform="translate(0 0)"/></g></g></g></svg>