<svg xmlns="http://www.w3.org/2000/svg" viewBox="0 0 36.02 36.02"><defs><style>.cls-1{fill:#FFB33A;}</style></defs><title>Ресурс 1</title><g id="Слой_2" data-name="Слой 2"><g id="Capa_1" data-name="Capa 1"><path class="cls-1" d="M23.08,32.47H13.49a1,1,0,1,1,0-2h8.59V14.27H17.51a1,1,0,0,1,0-2h5.57a1,1,0,0,1,1,1v18.2A1,1,0,0,1,23.08,32.47Zm-17.56,0H1a1,1,0,0,1-1-1V13.27a1,1,0,0,1,1-1H6.62a1,1,0,1,1,0,2H2v16.2H5.52a1,1,0,1,1,0,2Z"/><path class="cls-1" d="M35,32.47h-2.2a1,1,0,0,1,0-2H34v-6H23.2a1,1,0,0,1,0-2H35a1,1,0,0,1,1,1v8A1,1,0,0,1,35,32.47Zm-9.65,0H23.2a1,1,0,0,1,0-2h2.16a1,1,0,0,1,0,2Z"/><path class="cls-1" d="M32,24.44H23.08a1,1,0,0,1,0-2h7.45L29,18.72H23.08a1,1,0,0,1,0-2H29.7a1,1,0,0,1,.93.63l2.31,5.72A1,1,0,0,1,32,24.44Z"/><path class="cls-1" d="M9.69,36a4.48,4.48,0,1,1,4.44-4.48A4.47,4.47,0,0,1,9.69,36Zm0-7a2.48,2.48,0,1,0,2.44,2.48A2.46,2.46,0,0,0,9.69,29.06Z"/><path class="cls-1" d="M29,36a4.48,4.48,0,1,1,4.44-4.48A4.47,4.47,0,0,1,29,36Zm0-7a2.48,2.48,0,1,0,2.44,2.48A2.46,2.46,0,0,0,29,29.06Z"/><path class="cls-1" d="M12,20.38h0a1,1,0,0,1-.75-.34c-.48-.54-1-1.1-1.56-1.68C7,15.51,4,12.28,4,8.19A7.87,7.87,0,0,1,12,0,7.87,7.87,0,0,1,20.1,8.19c0,4.08-3,7.29-5.71,10.12-.56.59-1.1,1.16-1.6,1.73A1,1,0,0,1,12,20.38ZM12,2A5.87,5.87,0,0,0,6,8.19c0,3.29,2.76,6.21,5.2,8.79l.85.91.89-1c2.42-2.56,5.16-5.46,5.16-8.75A5.87,5.87,0,0,0,12,2Z"/></g></g></svg>