<svg xmlns="http://www.w3.org/2000/svg" xmlns:xlink="http://www.w3.org/1999/xlink" viewBox="0 0 37.99 9.24"><defs><style>.cls-1{fill:none;}.cls-2{clip-path:url(#clip-path);}.cls-3{fill:#ffffff;}</style><clipPath id="clip-path" transform="translate(0)"><rect class="cls-1" width="38" height="9.24"/></clipPath></defs><title>Ресурс 2</title><g id="Слой_2" data-name="Слой 2"><g id="Слой_1-2" data-name="Слой 1"><g class="cls-2"><path class="cls-3" d="M4.57,9.24A4.52,4.52,0,0,1,1.33,7.88a4.66,4.66,0,0,1,0-6.52h0a4.54,4.54,0,0,1,6.48,0,4.66,4.66,0,0,1,0,6.52A4.52,4.52,0,0,1,4.57,9.24ZM2.76,2.76a2.66,2.66,0,0,0,0,3.72,2.6,2.6,0,0,0,3.63,0,2.66,2.66,0,0,0,0-3.72,2.6,2.6,0,0,0-3.63,0Z" transform="translate(0)"/><path class="cls-3" d="M19,9.24a4.52,4.52,0,0,1-3.24-1.36,4.66,4.66,0,0,1,0-6.52,4.54,4.54,0,0,1,6.48,0,4.66,4.66,0,0,1,0,6.52A4.52,4.52,0,0,1,19,9.24ZM19,2a2.53,2.53,0,0,0-1.81.76,2.66,2.66,0,0,0,0,3.72,2.6,2.6,0,0,0,3.63,0,2.66,2.66,0,0,0,0-3.72A2.53,2.53,0,0,0,19,2Z" transform="translate(0)"/><path class="cls-3" d="M33.43,9.24h0a4.51,4.51,0,0,1-3.24-1.36,4.66,4.66,0,0,1,0-6.52A4.51,4.51,0,0,1,33.43,0h0a4.52,4.52,0,0,1,3.24,1.36,4.67,4.67,0,0,1,0,6.52A4.52,4.52,0,0,1,33.43,9.24Zm0-7.24h0a2.53,2.53,0,0,0-1.81.76h0a2.65,2.65,0,0,0,0,3.71,2.53,2.53,0,0,0,1.81.76h0a2.53,2.53,0,0,0,1.81-.76,2.66,2.66,0,0,0,0-3.72A2.53,2.53,0,0,0,33.43,2Zm-2.53.06h0Z" transform="translate(0)"/></g></g></g></svg>