<svg xmlns="http://www.w3.org/2000/svg" viewBox="0 0 36.02 36.02"><defs><style>.cls-1{fill:#FFB33A;}</style></defs><title>Ресурс 1</title><g id="Слой_2" data-name="Слой 2"><g id="Capa_1" data-name="Capa 1"><path class="cls-1" d="M24.8,33.22a7.92,7.92,0,0,1-5.74-2.46,8.56,8.56,0,0,1,0-11.79h0a7.92,7.92,0,0,1,5.74-2.46h0A7.92,7.92,0,0,1,30.54,19a8.56,8.56,0,0,1,0,11.79A7.92,7.92,0,0,1,24.8,33.22ZM20.5,20.36a6.54,6.54,0,0,0,0,9,5.93,5.93,0,0,0,8.6,0,6.54,6.54,0,0,0,0-9,5.93,5.93,0,0,0-8.6,0Z"/><path class="cls-1" d="M35,36a1,1,0,0,1-.72-.31l-5-5.16a1,1,0,1,1,1.44-1.39l5,5.16A1,1,0,0,1,35,36Z"/><path class="cls-1" d="M26.84,18a1,1,0,0,1-1-1V2H18.05V12.37a1,1,0,0,1-2,0V1a1,1,0,0,1,1-1h9.79a1,1,0,0,1,1,1V17A1,1,0,0,1,26.84,18Z"/><path class="cls-1" d="M20.59,32.08H1a1,1,0,0,1-1-1V8.71a1,1,0,0,1,1.43-.9l6.26,3V8.7a1,1,0,0,1,1.4-.92l8.36,3.68a1,1,0,1,1-.8,1.83l-7-3.06v2.14a1,1,0,0,1-1.43.9L2,10.3V30.08H20.59a1,1,0,0,1,0,2Z"/><path class="cls-1" d="M26.28,7.32H18.23a1,1,0,0,1,0-2h8.06a1,1,0,0,1,0,2Z"/></g></g></svg>