<svg xmlns="http://www.w3.org/2000/svg" viewBox="0 0 36.01 36.02"><defs><style>.cls-1{fill:#FFB33A;}</style></defs><title>Ресурс 1</title><g id="Слой_2" data-name="Слой 2"><g id="Capa_1" data-name="Capa 1"><path class="cls-1" d="M27.07,36a8.82,8.82,0,0,1-6.33-2.67,9.19,9.19,0,0,1,0-12.83h0a8.85,8.85,0,0,1,12.66,0,9.19,9.19,0,0,1,0,12.83A8.81,8.81,0,0,1,27.07,36Zm0-16.16a6.83,6.83,0,0,0-4.9,2.07h0a7.18,7.18,0,0,0,0,10,6.85,6.85,0,0,0,9.8,0,7.18,7.18,0,0,0,0-10A6.83,6.83,0,0,0,27.07,19.86Zm-5.62,1.37h0Z"/><path class="cls-1" d="M23.07,35H1a1,1,0,0,1-1-1V8A1,1,0,0,1,1,7H33.63a1,1,0,0,1,1,1V22a1,1,0,1,1-2,0V9H2V33H23.07a1,1,0,0,1,0,2Z"/><path class="cls-1" d="M23.47,8.67a1,1,0,0,1-1-1V2H12.17V7.67a1,1,0,0,1-2,0V1a1,1,0,0,1,1-1h12.3a1,1,0,0,1,1,1V7.67A1,1,0,0,1,23.47,8.67Z"/><path class="cls-1" d="M8,34a1,1,0,0,1-1-1V8A1,1,0,0,1,9,8V33A1,1,0,0,1,8,34Z"/><path class="cls-1" d="M26.67,19.76a1,1,0,0,1-1-1V8a1,1,0,1,1,2,0V18.76A1,1,0,0,1,26.67,19.76Z"/><path class="cls-1" d="M27.07,31.49a1,1,0,0,1-1-1V23.38a1,1,0,1,1,2,0v7.11A1,1,0,0,1,27.07,31.49Z"/><path class="cls-1" d="M30.57,27.94h-7a1,1,0,0,1,0-2h7a1,1,0,0,1,0,2Z"/></g></g></svg>