<svg id="Слой_1" data-name="Слой 1" xmlns="http://www.w3.org/2000/svg" width="48.12" height="14.07" viewBox="0 0 48.12 14.07">
  <defs>
    <style>
      .cls-1, .cls-2 {
        fill: #a1a1a1;
      }

      .cls-2 {
        stroke: #fff;
        stroke-linecap: round;
        stroke-linejoin: round;
        stroke-width: 0.24px;
        opacity: 0;
      }
    </style>
  </defs>
  <title>03_frp</title>
  <g>
    <polygon class="cls-1" points="5.61 0 5.61 8.32 4.61 2.69 0 0 0 14.07 12.34 7.1 5.61 11.87 5.61 14.07 17.95 6.97 5.61 0"/>
    <path class="cls-1" d="M38.65,26.28a1.09,1.09,0,0,1-1.12,1.11,2.22,2.22,0,0,1-1.5-.74V23.84a2.22,2.22,0,0,1,1.5-.74,1,1,0,0,1,1.12,1.1ZM38,21.15a2.85,2.85,0,0,0-2.37,1l-.5-.73H33.91v10H36V28.73a4.18,4.18,0,0,0,2,.61,2.71,2.71,0,0,0,2.87-2.81V24.08A2.69,2.69,0,0,0,38,21.15" transform="translate(-1 -17.97)"/>
    <polygon class="cls-1" points="41.27 3.43 41.27 11.13 43.39 11.13 43.39 5.14 45.88 5.14 45.88 11.13 48 11.13 48 3.43 41.27 3.43"/>
    <polygon class="cls-2" points="41.27 3.43 41.27 11.13 43.39 11.13 43.39 5.14 45.88 5.14 45.88 11.13 48 11.13 48 3.43 41.27 3.43"/>
    <path class="cls-1" d="M30.55,26.28a1,1,0,0,1-1.12,1.11,1.45,1.45,0,0,1-1-.37V23.47a1.26,1.26,0,0,1,1-.37,1.09,1.09,0,0,1,1.12,1.1Zm-5.24,1.11a1,1,0,0,1-1.12-1.11V24.2a1.09,1.09,0,0,1,1.12-1.1,1.45,1.45,0,0,1,1,.37V27a1.45,1.45,0,0,1-1,.37m4.86-6.24a2.29,2.29,0,0,0-1.74.73V18.7H25.19v1.83h1.12v1.35a2.53,2.53,0,0,0-1.75-.73A2.5,2.5,0,0,0,22.07,24v2.45c0,1.83.87,2.93,2.49,2.93a2.82,2.82,0,0,0,1.75-.73v2.81h2.12V28.61a2.53,2.53,0,0,0,1.74.73c1.62,0,2.5-1.1,2.5-2.93V24a2.5,2.5,0,0,0-2.5-2.81" transform="translate(-1 -17.97)"/>
  </g>
</svg>
