<svg 
 xmlns="http://www.w3.org/2000/svg"
 xmlns:xlink="http://www.w3.org/1999/xlink"
 width="244px" height="390px">
<defs>
<filter id="Filter_0">
    <feFlood flood-color="rgb(219, 222, 226)" flood-opacity="1" result="floodOut" />
    <feComposite operator="atop" in="floodOut" in2="SourceGraphic" result="compOut" />
    <feBlend mode="normal" in="compOut" in2="SourceGraphic" />
</filter>

</defs>
<g filter="url(#Filter_0)">
<path fill-rule="evenodd"  opacity="0.38" fill="rgb(240, 241, 242)"
 d="M171.833,318.329 C169.110,312.378 165.383,307.062 160.668,302.372 C155.945,297.689 150.405,293.987 144.057,291.283 C137.700,288.578 131.070,287.226 124.177,287.226 C116.910,287.226 110.195,288.578 104.025,291.283 C97.847,293.987 92.401,297.689 87.686,302.372 C82.963,307.062 79.244,312.564 76.521,318.869 C73.798,325.183 72.436,331.767 72.436,338.613 C72.436,345.830 73.798,352.499 76.521,358.626 C79.244,364.762 82.963,370.172 87.686,374.854 C92.401,379.545 97.847,383.238 104.025,385.943 C110.195,388.647 116.910,389.999 124.177,389.999 C138.695,389.999 150.950,384.954 160.941,374.854 C170.923,364.762 175.918,352.321 175.918,337.531 C175.918,330.685 174.557,324.279 171.833,318.329 ZM89.320,114.134 C90.409,91.415 101.302,80.056 121.999,80.056 C131.802,80.056 139.699,82.947 145.691,88.711 C151.682,94.483 154.677,102.056 154.677,111.429 C154.677,121.529 149.775,132.170 139.972,143.343 L101.847,187.698 C93.490,197.080 87.686,206.275 84.418,215.284 C81.150,224.302 79.517,235.121 79.517,247.740 L79.517,260.180 L168.838,260.180 L168.838,255.312 C168.838,246.658 172.106,238.189 178.642,229.889 L216.222,182.830 C226.025,170.575 233.106,158.852 237.463,147.671 C241.820,136.497 243.999,124.597 243.999,111.970 C243.999,95.388 241.003,80.242 235.012,66.534 C229.021,52.833 220.664,41.026 209.958,31.104 C199.244,21.190 186.352,13.524 171.289,8.115 C156.218,2.706 139.785,0.001 121.999,0.001 C95.124,0.001 71.798,5.951 52.012,17.851 C32.218,29.751 17.785,46.520 8.713,68.156 C5.802,75.011 3.717,81.595 2.449,87.899 C1.173,94.213 0.356,102.961 -0.001,114.134 L89.320,114.134 Z"/>
</g>
</svg>